<?xml version="1.0" standalone="no"?>
<!DOCTYPE svg PUBLIC "-//W3C//DTD SVG 20010904//EN"
 "http://www.w3.org/TR/2001/REC-SVG-20010904/DTD/svg10.dtd">
<svg version="1.0" xmlns="http://www.w3.org/2000/svg"
 width="1024.000000pt" height="1024.000000pt" viewBox="0 0 1024.000000 1024.000000"
 preserveAspectRatio="xMidYMid meet">

<g transform="translate(0.000000,1024.000000) scale(0.100000,-0.100000)"
fill="#000000" stroke="none">
<path d="M4609 7611 c-1 -50 -2 -97 -3 -103 -1 -9 22 -15 68 -20 206 -20 440
-106 621 -228 l70 -47 225 -6 c152 -4 249 -11 299 -22 210 -46 333 -141 381
-294 24 -76 25 -136 5 -216 -39 -147 -147 -237 -300 -252 -36 -3 -65 -6 -65
-7 0 -1 9 -44 21 -96 12 -59 22 -155 26 -251 l6 -156 83 -6 c146 -9 263 -85
320 -210 26 -56 29 -72 29 -172 0 -100 -3 -115 -28 -166 -54 -112 -183 -198
-322 -219 -38 -5 -142 -10 -231 -10 l-161 0 -52 -65 c-133 -163 -357 -324
-559 -401 l-87 -33 551 -1 c614 0 646 3 820 65 225 80 398 222 494 406 70 135
85 207 85 414 0 191 -8 240 -59 367 -39 97 -87 167 -167 248 l-75 76 34 50
c47 68 117 216 139 294 14 51 18 102 18 240 0 152 -3 185 -23 253 -94 325
-346 540 -737 628 -97 22 -118 23 -762 26 l-663 4 -1 -90z"/>
<path d="M3412 6028 l3 -1363 605 0 c531 1 616 3 697 18 211 40 380 106 542
214 101 67 276 238 346 338 104 147 181 329 222 525 25 121 25 412 -1 530 -61
284 -170 493 -357 685 -204 209 -446 343 -721 396 -91 17 -149 19 -718 19
l-620 0 2 -1362z m1193 847 c342 -60 630 -338 699 -677 20 -96 21 -265 2 -355
-46 -216 -169 -404 -341 -520 -85 -57 -131 -79 -232 -110 -87 -27 -90 -27
-445 -31 l-358 -4 0 856 0 856 294 0 c218 0 316 -4 381 -15z"/>
<path d="M3833 3570 c-70 -28 -47 -130 30 -130 38 0 50 7 66 37 16 32 3 71
-30 88 -32 17 -35 17 -66 5z"/>
<path d="M4140 3145 l0 -415 55 0 55 0 0 415 0 415 -55 0 -55 0 0 -415z"/>
<path d="M7400 3145 l0 -415 80 0 80 0 0 83 0 83 43 42 c23 23 47 42 52 42 6
-1 50 -57 98 -125 l88 -125 90 0 c82 0 89 1 80 18 -5 9 -61 89 -124 177 l-115
160 114 115 c63 63 114 118 114 121 0 4 -42 4 -92 1 l-93 -5 -125 -118 -125
-118 -3 239 -2 240 -80 0 -80 0 0 -415z"/>
<path d="M5120 3120 l0 -391 263 3 c248 3 265 4 312 26 63 29 84 48 106 97 45
98 0 227 -93 266 l-30 12 32 25 c65 51 87 149 51 227 -22 49 -43 68 -106 97
-47 21 -67 23 -292 26 l-243 4 0 -392z m457 240 c57 -34 57 -116 0 -151 -27
-16 -51 -19 -164 -19 l-133 0 0 95 0 95 133 0 c113 0 137 -3 164 -20z m40
-326 c34 -26 51 -83 35 -118 -21 -47 -64 -59 -224 -64 l-148 -5 0 107 0 107
154 -3 c138 -3 158 -5 183 -24z"/>
<path d="M2240 3111 l0 -381 203 0 c211 0 264 8 342 47 131 68 210 233 186
389 -21 134 -92 231 -211 288 l-65 31 -227 3 -228 4 0 -381z m439 263 c105
-31 181 -140 181 -259 0 -115 -51 -204 -144 -253 -48 -25 -60 -27 -208 -30
l-158 -4 0 281 0 281 138 0 c97 0 154 -5 191 -16z"/>
<path d="M6118 3320 c-55 -10 -158 -55 -158 -69 0 -19 40 -103 48 -99 57 30
97 42 148 46 95 7 149 -27 156 -98 l3 -25 -130 -5 c-143 -6 -185 -19 -230 -71
-53 -63 -38 -183 28 -233 85 -63 219 -63 303 0 l32 23 6 -29 c5 -30 6 -30 76
-30 l70 0 0 193 c0 229 -10 277 -70 337 -21 21 -56 44 -77 50 -55 15 -150 20
-205 10z m199 -381 c-9 -69 -64 -109 -149 -109 -76 0 -117 54 -83 107 23 34
48 42 149 42 l89 1 -6 -41z"/>
<path d="M6902 3315 c-23 -7 -58 -25 -77 -40 l-35 -26 0 35 0 36 -75 0 -75 0
0 -295 0 -295 80 0 80 0 0 175 c0 156 2 180 20 215 25 49 64 70 129 70 38 0
56 -6 80 -25 42 -36 54 -102 49 -286 l-3 -149 78 0 77 0 0 208 c0 197 -1 209
-24 257 -13 28 -36 62 -52 77 -58 54 -161 72 -252 43z"/>
<path d="M3224 3306 c-47 -15 -104 -47 -104 -58 0 -5 6 -24 14 -43 l15 -34 58
26 c78 36 183 39 229 6 36 -26 57 -69 52 -109 l-3 -29 -141 -5 c-131 -5 -143
-7 -181 -32 -65 -43 -86 -107 -63 -190 35 -125 265 -158 378 -55 l22 20 0 -36
0 -37 50 0 50 0 0 203 c0 117 -5 219 -11 242 -7 23 -28 57 -53 81 -24 25 -58
46 -81 53 -53 14 -180 13 -231 -3z m266 -358 c0 -60 -18 -89 -70 -115 -75 -38
-195 -26 -214 22 -9 25 -7 64 5 86 18 35 67 48 177 49 l102 0 0 -42z"/>
<path d="M3810 3025 l0 -295 55 0 55 0 0 295 0 295 -55 0 -55 0 0 -295z"/>
<path d="M4883 3307 c-4 -6 -48 -109 -98 -227 -49 -119 -94 -218 -98 -220 -5
-3 -52 97 -104 223 l-96 227 -58 0 -58 0 33 -77 c19 -43 77 -176 129 -296 l96
-219 -21 -45 c-22 -47 -67 -83 -104 -83 -11 0 -42 11 -67 24 l-47 23 -20 -35
c-20 -33 -20 -36 -4 -53 20 -22 103 -49 151 -49 38 0 98 23 126 48 25 23 70
113 150 302 36 85 95 222 131 305 36 82 66 152 66 156 0 12 -99 9 -107 -4z"/>
</g>
</svg>
