<?xml version="1.0" standalone="no"?>
<!DOCTYPE svg PUBLIC "-//W3C//DTD SVG 20010904//EN"
 "http://www.w3.org/TR/2001/REC-SVG-20010904/DTD/svg10.dtd">
<svg version="1.0" xmlns="http://www.w3.org/2000/svg"
 width="1024.000000pt" height="1536.000000pt" viewBox="0 0 1024.000000 1536.000000"
 preserveAspectRatio="xMidYMid meet">

<g transform="translate(0.000000,1536.000000) scale(0.100000,-0.100000)"
fill="#000000" stroke="none">
<path d="M5080 11650 c-210 -33 -323 -154 -366 -390 -51 -285 46 -560 229
-650 92 -45 191 -57 292 -37 90 19 200 68 215 98 13 24 -4 62 -58 134 -42 55
-58 59 -117 24 -43 -25 -122 -35 -168 -20 -48 16 -99 75 -128 147 -20 50 -23
76 -23 179 0 107 3 126 26 176 28 61 60 92 115 110 45 15 139 7 182 -16 53
-27 72 -15 114 70 48 97 48 121 1 141 -72 30 -228 47 -314 34z"/>
<path d="M5760 11608 c-5 -13 -32 -133 -60 -268 -28 -135 -74 -350 -101 -478
-27 -129 -49 -244 -49 -258 0 -18 7 -25 38 -33 81 -22 173 -34 181 -25 5 5 27
99 51 209 23 110 45 204 49 208 7 7 265 -53 276 -64 2 -3 -13 -88 -35 -189
-49 -224 -49 -237 -12 -246 15 -3 61 -14 102 -25 59 -14 78 -16 87 -6 7 7 33
104 58 217 146 663 173 795 164 806 -12 14 -195 58 -213 51 -8 -3 -29 -79 -52
-187 -22 -102 -44 -184 -51 -187 -13 -5 -261 52 -271 62 -3 2 12 83 32 178 21
96 36 182 35 192 -3 15 -25 24 -99 42 -119 28 -118 28 -130 1z"/>
<path d="M4012 11501 c-56 -15 -107 -32 -112 -37 -8 -8 -18 -177 -57 -961 -5
-117 -4 -133 10 -139 26 -9 210 34 225 53 7 10 12 49 12 99 0 46 4 85 9 89 6
3 61 17 123 30 62 14 121 28 130 31 12 4 29 -16 65 -78 l49 -83 50 2 c82 5
188 35 192 56 3 17 -120 236 -397 707 -73 124 -140 233 -149 243 -19 22 -26
21 -150 -12z m176 -472 c46 -88 81 -163 78 -166 -3 -3 -39 -13 -81 -23 -55
-13 -78 -15 -80 -6 -6 17 -11 356 -5 356 3 0 42 -73 88 -161z"/>
<path d="M6818 11333 c-8 -10 -43 -83 -76 -163 -34 -80 -118 -275 -188 -435
-142 -326 -151 -352 -138 -364 20 -19 490 -221 508 -219 22 3 89 148 84 182
-2 16 -35 34 -145 81 -78 33 -145 63 -148 66 -6 7 51 156 66 173 5 6 62 -12
139 -44 97 -39 133 -50 143 -42 19 16 80 160 74 175 -3 8 -56 35 -119 62 -62
26 -119 54 -127 61 -12 11 -9 24 19 91 19 43 38 81 43 84 4 3 74 -23 154 -59
100 -44 151 -62 160 -56 16 10 83 156 83 180 0 9 -37 32 -97 61 -97 45 -411
183 -417 183 -2 0 -10 -8 -18 -17z"/>
<path d="M3091 11160 c-141 -51 -381 -185 -381 -211 0 -10 19 -55 43 -101 24
-46 128 -248 232 -450 104 -202 194 -369 201 -372 17 -7 190 90 198 111 4 9 0
26 -9 39 -8 13 -47 81 -86 151 -65 118 -69 128 -53 140 10 7 22 13 26 13 5 0
43 -26 86 -58 194 -147 231 -172 251 -172 12 0 57 18 101 40 57 29 80 46 80
59 0 13 -54 59 -162 141 -90 68 -164 124 -166 125 -2 2 8 19 22 39 38 57 49
101 44 182 -8 122 -86 253 -185 311 -61 36 -165 41 -242 13z m130 -247 c57
-48 76 -129 40 -174 -26 -32 -128 -86 -139 -74 -11 12 -112 202 -112 210 0 11
125 64 152 64 15 1 40 -11 59 -26z"/>
<path d="M7599 10825 c-144 -53 -276 -176 -358 -335 -77 -147 -98 -282 -61
-389 50 -149 178 -265 337 -306 73 -19 137 -19 153 0 8 10 11 44 9 105 -4 101
-10 110 -70 110 -49 0 -138 48 -165 88 -31 45 -37 106 -19 176 44 168 199 326
319 326 61 0 140 -50 178 -111 21 -33 38 -49 52 -49 28 0 174 70 180 86 10 25
-11 60 -76 130 -76 82 -160 138 -246 164 -74 23 -179 25 -233 5z"/>
<path d="M2071 10489 c-76 -58 -92 -76 -88 -93 6 -25 201 -493 324 -776 70
-160 94 -206 109 -208 23 -3 184 122 184 143 0 8 -18 50 -40 96 -22 45 -37 86
-34 90 10 17 203 179 213 179 5 0 42 -22 82 -50 40 -27 81 -50 91 -50 23 0
173 112 182 136 4 10 3 21 -1 25 -4 4 -127 83 -273 176 -146 93 -345 222 -442
286 -97 64 -185 117 -195 117 -11 0 -61 -32 -112 -71z m278 -287 c25 -22 79
-62 119 -91 39 -29 72 -56 72 -61 0 -4 -27 -31 -60 -60 l-60 -52 -16 38 c-9
22 -36 84 -61 139 -24 55 -47 106 -50 113 -9 21 8 13 56 -26z"/>
<path d="M8289 10268 c-273 -243 -638 -580 -643 -594 -4 -10 17 -37 65 -82 39
-37 78 -71 85 -75 15 -8 90 51 206 161 44 42 50 45 117 50 l72 5 -30 -79 c-16
-44 -54 -148 -86 -232 -31 -84 -55 -159 -53 -166 4 -17 156 -146 173 -146 7 0
17 6 22 13 6 6 56 149 113 317 56 168 104 306 105 308 2 2 108 23 237 46 205
37 233 45 236 62 1 12 -23 44 -73 94 l-76 75 -212 -44 c-117 -25 -225 -46
-242 -49 l-30 -4 35 37 c19 20 86 82 148 137 61 56 112 108 112 117 0 21 -130
151 -151 151 -8 0 -67 -46 -130 -102z"/>
<path d="M1631 9979 c-76 -23 -142 -77 -288 -237 -137 -151 -137 -149 -1 -262
56 -47 223 -190 372 -318 149 -128 282 -235 295 -239 22 -5 35 5 98 73 40 43
73 84 73 90 0 5 -15 21 -32 34 -64 46 -228 192 -228 202 0 6 22 34 49 64 108
118 135 244 79 367 -59 127 -195 227 -317 233 -36 2 -81 -1 -100 -7z m103
-244 c18 -9 48 -32 67 -51 28 -29 34 -43 34 -77 0 -35 -7 -51 -40 -90 -21 -26
-44 -47 -50 -47 -12 0 -188 154 -193 168 -5 15 106 112 128 112 12 0 37 -7 54
-15z"/>
<path d="M4866 9894 c-644 -67 -1282 -319 -1731 -684 -475 -385 -804 -932
-805 -1337 0 -166 51 -262 174 -325 54 -28 73 -32 161 -36 80 -3 113 0 163 16
l62 20 188 -157 c663 -554 1009 -841 1197 -991 72 -57 186 -153 255 -214 69
-60 151 -130 182 -154 31 -24 79 -70 106 -102 l49 -58 -19 -74 c-35 -132 -19
-429 27 -519 24 -46 118 -142 174 -178 58 -38 147 -61 231 -61 73 0 138 25
222 85 26 19 54 35 61 35 14 0 25 -31 47 -130 7 -30 17 -61 23 -68 19 -24 59
-13 99 28 40 43 47 74 25 104 -12 16 -17 17 -36 6 -13 -6 -27 -8 -31 -3 -7 7
-60 191 -60 208 0 14 63 -70 136 -182 81 -125 98 -136 158 -108 58 28 136 107
136 137 0 35 -23 39 -83 16 -68 -26 -83 -24 -91 13 -13 65 -108 289 -129 304
-47 33 -129 13 -374 -92 -10 -4 -13 14 -13 72 0 68 2 76 18 71 49 -14 165 -17
193 -6 39 17 52 43 93 197 28 103 40 131 61 146 27 20 33 54 15 87 -11 21 -20
7 436 703 369 564 579 879 712 1070 l124 177 67 0 c123 0 235 47 317 132 107
110 149 230 148 413 -1 134 -25 233 -89 371 -202 439 -746 807 -1444 978 -377
93 -806 126 -1155 90z m1312 -455 c213 -23 378 -68 550 -149 316 -150 539
-373 641 -640 51 -132 47 -153 -8 -45 -172 338 -486 575 -906 684 -165 43
-280 55 -489 48 -268 -8 -521 -63 -777 -170 -96 -39 -343 -166 -337 -173 2 -1
35 4 73 12 39 7 90 13 113 14 l44 0 -6 -47 c-3 -27 -8 -102 -11 -168 -8 -167
-30 -498 -65 -985 -30 -413 -89 -1287 -91 -1345 -2 -47 -17 77 -39 335 -11
129 -27 305 -35 390 -8 85 -26 295 -40 465 -22 275 -112 1207 -118 1228 -1 5
-13 1 -25 -10 l-22 -18 20 -185 c37 -342 70 -688 100 -1048 41 -487 118 -1331
130 -1420 17 -128 9 -143 -17 -32 -54 228 -189 762 -275 1090 -50 190 -147
569 -217 842 l-126 497 -22 -17 -22 -17 105 -410 c58 -225 150 -581 205 -790
135 -514 321 -1256 317 -1261 -2 -2 -30 58 -62 134 -124 289 -475 1050 -783
1697 -66 138 -125 265 -132 283 -13 31 -15 32 -32 16 -11 -10 -19 -20 -19 -24
0 -4 81 -178 181 -386 265 -555 418 -885 654 -1410 62 -138 120 -266 130 -284
24 -47 2 -28 -29 25 -27 46 -216 319 -521 755 -156 223 -392 568 -631 922 -88
130 -93 135 -109 118 -10 -11 -14 -24 -9 -32 34 -56 646 -947 886 -1290 164
-234 298 -428 298 -430 0 -9 -520 522 -800 817 -168 176 -386 406 -486 511
l-183 190 85 73 c46 40 157 150 247 244 448 474 679 681 982 881 343 227 593
353 848 430 266 81 582 113 835 85z m-838 -449 c47 -10 121 -31 165 -47 l80
-28 7 -170 c3 -93 11 -370 17 -615 6 -245 16 -573 21 -730 5 -157 14 -456 20
-665 6 -209 15 -449 20 -532 l10 -153 -25 -36 c-15 -23 -25 -51 -25 -73 0 -28
-12 -53 -50 -106 -75 -105 -87 -115 -129 -115 -20 0 -109 12 -199 27 -149 25
-165 26 -190 12 -26 -14 -27 -17 -32 -129 l-5 -115 -13 80 c-20 122 -31 164
-63 243 -29 73 -29 73 -19 195 5 67 14 212 20 322 16 295 53 860 109 1660 27
391 53 777 57 859 l7 148 66 -6 c36 -4 104 -15 151 -26z m393 -141 c81 -40
251 -142 294 -176 l23 -18 -51 -325 c-55 -356 -62 -406 -143 -940 -48 -316
-111 -761 -135 -955 l-7 -60 -7 75 c-3 41 -9 185 -12 320 -3 135 -12 461 -20
725 -36 1189 -40 1395 -30 1395 3 0 42 -18 88 -41z m473 -310 c54 -45 117 -99
140 -121 l41 -39 -17 -62 c-19 -67 -110 -378 -167 -572 -19 -66 -50 -172 -68
-235 -46 -161 -229 -777 -319 -1075 -42 -137 -76 -256 -76 -264 0 -8 -2 -12
-5 -9 -8 7 118 898 220 1564 48 308 95 616 105 685 30 200 32 209 40 209 3 0
51 -37 106 -81z m503 -466 c2 -2 -78 -175 -179 -385 -249 -519 -719 -1472
-724 -1467 -2 2 47 175 110 384 126 419 159 528 364 1230 77 264 143 486 146
494 3 10 48 -28 142 -120 75 -74 138 -135 141 -136z m110 -77 c31 -18 78 -41
104 -51 26 -10 46 -23 44 -29 -3 -6 -42 -63 -87 -126 -78 -109 -618 -919 -820
-1231 -52 -81 -96 -145 -98 -144 -2 2 76 161 172 354 97 193 264 534 372 758
229 476 242 503 250 503 4 0 32 -15 63 -34z m-3368 -623 c167 -175 349 -365
404 -423 55 -58 228 -237 385 -399 l285 -294 -250 203 c-325 265 -610 501
-810 670 -88 74 -242 204 -343 288 l-183 153 32 17 c18 9 59 36 93 58 34 23
66 42 73 43 6 0 148 -142 314 -316z"/>
<path d="M5173 6105 c-58 -25 -74 -65 -71 -180 l3 -100 85 -17 c47 -10 103
-17 125 -15 37 2 40 4 50 44 5 23 13 44 16 48 13 12 -4 140 -22 171 -33 55
-120 78 -186 49z"/>
<path d="M1917 7225 c-38 -37 -34 -362 8 -650 99 -682 411 -1293 912 -1788
150 -148 258 -242 380 -329 328 -236 737 -426 1118 -518 66 -16 121 -27 123
-25 2 2 -34 43 -80 92 -47 48 -102 107 -124 130 -32 34 -55 47 -130 72 -212
69 -503 214 -709 352 -589 396 -1033 1017 -1213 1699 -67 252 -90 424 -99 723
-6 215 -7 229 -27 243 -28 19 -140 19 -159 -1z"/>
<path d="M8120 7220 c-18 -18 -20 -33 -20 -170 0 -411 -89 -831 -257 -1216
-87 -200 -253 -471 -400 -654 -151 -189 -409 -434 -603 -572 -196 -140 -454
-280 -670 -362 -52 -20 -102 -40 -110 -44 -17 -9 -220 -253 -220 -264 0 -14
269 70 428 133 563 223 1025 580 1405 1086 136 180 179 248 279 440 217 415
336 843 354 1273 8 178 -2 335 -23 355 -23 24 -138 20 -163 -5z"/>
<path d="M7205 5820 c-12 -4 -104 -72 -206 -151 -101 -79 -240 -187 -308 -239
-603 -462 -1045 -826 -1432 -1177 -157 -142 -157 -142 -175 -121 -24 27 -289
237 -385 306 -41 29 -120 85 -176 126 -185 133 -322 205 -389 206 -67 0 -113
-78 -83 -141 17 -34 299 -356 671 -764 290 -318 321 -345 403 -345 56 1 113
29 159 81 75 84 501 544 676 729 145 154 476 497 1220 1265 54 55 102 110 109
122 17 33 13 71 -9 93 -21 21 -42 24 -75 10z"/>
</g>
</svg>
